<svg xmlns="http://www.w3.org/2000/svg" viewBox="0 0 64 64"><circle cx="48.8" cy="15.2" r="3.8"/><path d="M32 16.1c-8.8 0-15.9 7.1-15.9 15.9S23.2 47.9 32 47.9 47.9 40.8 47.9 32 40.8 16.1 32 16.1zm0 26.8c-6 0-10.9-4.9-10.9-10.9S26 21.1 32 21.1 42.9 26 42.9 32 38 42.9 32 42.9z"/><path d="M63.8 19.7c-.1-3.1-.6-5.6-1.5-8-.9-2.4-2.2-4.3-4-6.1-1.8-1.8-3.7-3-6.1-4-2.4-.9-4.8-1.4-8-1.5C41.1 0 40 0 32 0s-9.1 0-12.3.2c-3.1.1-5.6.6-8 1.5-2.4.9-4.3 2.2-6.1 4-1.8 1.8-3 3.7-4 6.1-.9 2.4-1.4 4.8-1.5 8C0 22.9 0 24 0 32s0 9.1.2 12.3c.1 3.1.6 5.6 1.5 8 .9 2.4 2.2 4.3 4 6.1 1.8 1.8 3.7 3 6.1 4 2.4.9 4.8 1.4 8 1.5 3.1.1 4.2.1 12.2.1s9.1 0 12.3-.2c3.1-.1 5.6-.6 8-1.5 2.4-.9 4.3-2.2 6.1-4 1.8-1.8 3-3.7 4-6.1.9-2.4 1.4-4.8 1.5-8 .1-3.1.1-4.2.1-12.2s0-9.1-.2-12.3zm-5 24.3c-.1 2.6-.5 4.5-1.2 6.4-.7 1.7-1.5 3.1-2.8 4.4s-2.6 2.2-4.4 2.8c-1.8.7-3.8 1.1-6.4 1.2-3 .2-4.1.2-12 .2s-9 0-12-.2c-2.6-.1-4.5-.5-6.4-1.2-1.7-.7-3.1-1.5-4.4-2.8S7 52.2 6.4 50.4c-.7-1.8-1.1-3.8-1.2-6.4C5 40.9 5 39.9 5 32s0-8.9.2-12c.1-2.6.5-4.5 1.2-6.4.7-1.7 1.5-3.1 2.8-4.4s2.6-2.2 4.4-2.8c1.8-.7 3.8-1.1 6.4-1.2C23 5 24.1 5 32 5s9 0 12 .2c2.6.1 4.5.5 6.4 1.2 1.7.7 3.1 1.5 4.4 2.8s2.2 2.6 2.8 4.4c.7 1.8 1.1 3.8 1.2 6.4.2 3 .2 4.1.2 12s0 9-.2 12z"/></svg>