<svg width="114" height="114" viewBox="0 0 114 114" fill="none" xmlns="http://www.w3.org/2000/svg">
<circle cx="57" cy="57" r="57" fill="#FFDD00" fill-opacity="0.2"/>
<path fill-rule="evenodd" clip-rule="evenodd" d="M57 71.6666C57 71.6666 69 63.6666 69 54.3333C69 51.1507 67.7357 48.0984 65.4853 45.848C63.2348 43.5975 60.1826 42.3333 57 42.3333C53.8174 42.3333 50.7652 43.5975 48.5147 45.848C46.2643 48.0984 45 51.1507 45 54.3333C45 63.6666 57 71.6666 57 71.6666ZM61 54.3333C61 56.5424 59.2091 58.3333 57 58.3333C54.7909 58.3333 53 56.5424 53 54.3333C53 52.1241 54.7909 50.3333 57 50.3333C59.2091 50.3333 61 52.1241 61 54.3333Z" fill="#231F20"/>
</svg>
